# xmcd CD database file
# Copyright (C) 1997 Ti Kan
# 
# Track frame offsets:
#     150
#     20197
#     42225
#     61335
#     77137
#     95904
#     124672
#     139697
#     157335
#     176910
#     202572
# 
# Disc length: 2820 seconds
# 
# Revision: 1
# Processed by: cddbd v1.4b41PL1 Copyright (c) Steve Scherf et al.
# Submitted via: DiscPlay 4.0.3
# 
DISCID=9b0b020b
DTITLE=Aida Cooper and Nite Life - Bitter sweet
DYEAR=1900
DGENRE=
TTITLE0=Came back and talk to me
TTITLE1=I don`t need your body
TTITLE2=Sorry
TTITLE3=You don`t have to worry
TTITLE4=Got my mojo workin`
TTITLE5=I`m in the mood
TTITLE6=Slow and bluesy
TTITLE7=Bitter sweet
TTITLE8=Taken to the bone
TTITLE9=What I must do
TTITLE10=Mercedes benz
EXTD=
EXTT0=
EXTT1=
EXTT2=
EXTT3=
EXTT4=
EXTT5=
EXTT6=
EXTT7=
EXTT8=
EXTT9=
EXTT10=
PLAYORDER=
